<svg xmlns="http://www.w3.org/2000/svg" xmlns:xlink="http://www.w3.org/1999/xlink" width="5000" zoomAndPan="magnify" viewBox="0 0 3750 3749.999967" height="5000" preserveAspectRatio="xMidYMid meet" version="1.0"><rect x="-375" width="4500" fill="#ffffff" y="-374.999997" height="4499.99996" fill-opacity="1"/><rect x="-375" width="4500" fill="#ffffff" y="-374.999997" height="4499.99996" fill-opacity="1"/><path fill="#000000" d="M 2766.597656 3273.375 C 2737.804688 2398.703125 2585.925781 1742.972656 2512.941406 1427.84375 C 2492.367188 1339.023438 2476.117188 1268.859375 2476.867188 1250.878906 C 2478.4375 1212.457031 2488.257812 1159.042969 2499.609375 1097.195312 C 2527.410156 945.816406 2565.484375 738.488281 2507.863281 579.378906 C 2461.042969 450.109375 2193.320312 286.109375 1959.179688 286.109375 C 1825.308594 286.109375 1760.121094 351.207031 1754.910156 415.722656 C 1750.582031 469.285156 1789.285156 533.992188 1884.496094 549.472656 C 1918.625 555.023438 2218.722656 608.167969 2246.238281 762.871094 C 2262.007812 851.582031 2232.859375 965.238281 2204.976562 1046.398438 C 2203.207031 1038.320312 2201.195312 1030.425781 2198.898438 1022.824219 L 2156.722656 883.320312 C 2113.800781 741.335938 1967.40625 668.75 1816.191406 714.441406 C 1744.683594 736.0625 1685.757812 780.53125 1650.285156 839.679688 C 1613.53125 900.933594 1604.996094 973.394531 1626.25 1043.6875 L 1668.421875 1183.191406 C 1677.472656 1213.125 1691.539062 1242.910156 1709.339844 1270.785156 C 1495.09375 1182.308594 1276.597656 1025.128906 1072.328125 811.699219 C 999.320312 735.414062 916.84375 741.644531 871.078125 779.707031 C 819.175781 822.90625 801.113281 914.089844 877.792969 1020.425781 C 1026.15625 1226.195312 1306.613281 1385.105469 1531.953125 1512.78125 C 1652.058594 1580.839844 1755.792969 1639.617188 1802.570312 1686.109375 C 1912.847656 1795.71875 1947.199219 2058.910156 1909.050781 2226.566406 C 1902.230469 2256.5625 1886.804688 2313.3125 1867.28125 2385.15625 C 1793.207031 2657.710938 1669.230469 3113.886719 1682.238281 3302.351562 C 1688.929688 3399.378906 1748.011719 3445.089844 1801.074219 3455.503906 C 1860.390625 3461.84375 1911.890625 3447.375 1946.234375 3385.644531 C 1991.792969 3292.914062 2044.773438 3067.589844 2091.523438 2868.792969 C 2122.488281 2737.121094 2151.726562 2612.746094 2169.601562 2569.859375 C 2192.800781 2514.199219 2232.121094 2481.1875 2277.492188 2479.289062 C 2313.175781 2477.777344 2345.921875 2497.050781 2362.769531 2529.542969 C 2389.984375 2582.019531 2403.457031 2760.914062 2416.484375 2933.921875 C 2426.582031 3067.863281 2437.007812 3206.371094 2454.574219 3299.8125 C 2478.441406 3426.757812 2560.386719 3463.730469 2623.417969 3456.816406 C 2695.492188 3448.910156 2770.171875 3381.925781 2766.597656 3273.375 Z M 1674.433594 1029.125 C 1657.339844 972.59375 1664.09375 914.511719 1693.445312 865.582031 C 1722.480469 817.191406 1771.242188 780.632812 1830.746094 762.640625 C 1954.492188 725.21875 2073.902344 783.375 2108.523438 897.890625 L 2150.695312 1037.394531 C 2183.433594 1145.6875 2153.5 1325.722656 2013.753906 1367.972656 C 1934.554688 1391.914062 1868.785156 1359.128906 1827.5625 1327.402344 C 1776.957031 1288.457031 1734.4375 1227.617188 1716.605469 1168.621094 Z M 2617.925781 3406.773438 C 2574.308594 3411.542969 2521.542969 3383.523438 2504.054688 3290.519531 C 2487.003906 3199.8125 2476.675781 3062.726562 2466.6875 2930.152344 C 2452.660156 2743.902344 2439.414062 2567.984375 2407.460938 2506.375 C 2381.5 2456.324219 2330.734375 2426.785156 2275.390625 2428.996094 C 2210.628906 2431.707031 2153.703125 2477.128906 2123.128906 2550.507812 C 2103.667969 2597.207031 2075.328125 2717.726562 2042.515625 2857.285156 C 1998.660156 3043.761719 1944.089844 3275.847656 1901.046875 3363.460938 C 1885.117188 3395.871094 1848.042969 3413.4375 1810.765625 3406.113281 C 1765.761719 3397.277344 1736.484375 3357.191406 1732.460938 3298.894531 C 1720.042969 3118.902344 1847.433594 2650.179688 1915.867188 2398.371094 C 1935.546875 2325.960938 1951.09375 2268.765625 1958.148438 2237.75 C 2000.089844 2053.429688 1961.84375 1773.4375 1838.0625 1650.410156 C 1786.496094 1599.15625 1685.121094 1541.714844 1556.777344 1468.992188 C 1335.699219 1343.730469 1060.558594 1187.828125 918.632812 990.988281 C 860.9375 910.972656 869.351562 846.660156 903.289062 818.417969 C 931.648438 794.816406 985.253906 793.554688 1035.949219 846.519531 C 1271.847656 1093.003906 1527.265625 1266.601562 1774.980469 1348.964844 C 1828.660156 1392.585938 1889.695312 1419.613281 1959.683594 1426.394531 C 1982.6875 1426.394531 2005.703125 1423.011719 2028.324219 1416.167969 C 2145.09375 1380.867188 2199.941406 1273.902344 2211.121094 1167.714844 C 2226.1875 1135.238281 2324.421875 914.988281 2295.8125 754.058594 C 2263.746094 573.753906 1979.070312 513.84375 1892.578125 499.777344 C 1828.527344 489.363281 1802.488281 452.09375 1805.101562 419.773438 C 1808.445312 378.304688 1857.390625 336.460938 1959.179688 336.460938 C 2165.039062 336.460938 2420.269531 485.378906 2460.523438 596.53125 C 2513.5 742.8125 2476.851562 942.382812 2450.085938 1088.101562 C 2438.386719 1151.816406 2428.28125 1206.847656 2426.554688 1248.816406 C 2425.578125 1272.59375 2437.296875 1324.363281 2463.894531 1439.203125 C 2536.523438 1752.777344 2687.652344 2405.273438 2716.28125 3275.03125 C 2718.847656 3353.304688 2667.523438 3401.328125 2617.925781 3406.773438 Z M 2617.925781 3406.773438 " fill-opacity="1" fill-rule="nonzero"/><path fill="#000000" d="M 2658.480469 997.15625 C 2661.511719 998.355469 2664.640625 998.921875 2667.71875 998.921875 C 2677.75 998.921875 2687.234375 992.882812 2691.144531 982.984375 C 2694.234375 975.144531 2766.371094 788.152344 2718.433594 540.183594 C 2715.796875 526.546875 2702.667969 517.589844 2688.929688 520.246094 C 2675.277344 522.882812 2666.351562 536.09375 2668.992188 549.746094 C 2714.019531 782.632812 2645 962.738281 2644.308594 964.5 C 2639.195312 977.425781 2645.546875 992.054688 2658.480469 997.15625 Z M 2658.480469 997.15625 " fill-opacity="1" fill-rule="nonzero"/><path fill="#000000" d="M 2888.542969 567.628906 C 2884.917969 554.207031 2871.082031 546.257812 2857.671875 549.894531 C 2844.253906 553.519531 2836.3125 567.339844 2839.941406 580.765625 C 2949.148438 984.824219 2691.425781 1364.933594 2688.820312 1368.714844 C 2680.910156 1380.152344 2683.773438 1395.835938 2695.210938 1403.738281 C 2699.578125 1406.761719 2704.566406 1408.207031 2709.503906 1408.207031 C 2717.496094 1408.207031 2725.347656 1404.414062 2730.234375 1397.34375 C 2733.054688 1393.273438 2799.859375 1295.804688 2853.253906 1144.75 C 2902.703125 1004.863281 2948.964844 791.179688 2888.542969 567.628906 Z M 2888.542969 567.628906 " fill-opacity="1" fill-rule="nonzero"/><path fill="#000000" d="M 1451.472656 1778.683594 C 1452.628906 1778.839844 1453.773438 1778.921875 1454.914062 1778.921875 C 1467.289062 1778.921875 1478.0625 1769.789062 1479.804688 1757.1875 C 1481.707031 1743.425781 1472.082031 1730.722656 1458.332031 1728.804688 C 1456.128906 1728.496094 1237.21875 1696.046875 1129.335938 1515.476562 C 1122.199219 1503.542969 1106.742188 1499.640625 1094.8125 1506.777344 C 1082.882812 1513.910156 1078.984375 1529.367188 1086.117188 1541.296875 C 1206.65625 1743.054688 1441.527344 1777.324219 1451.472656 1778.683594 Z M 1451.472656 1778.683594 " fill-opacity="1" fill-rule="nonzero"/><path fill="#000000" d="M 1553.867188 1974.949219 C 1549.914062 1974.3125 1156.453125 1908.117188 956.929688 1608.246094 C 949.21875 1596.671875 933.609375 1593.53125 922.023438 1601.234375 C 910.449219 1608.9375 907.308594 1624.5625 915.011719 1636.136719 C 1126.980469 1954.714844 1528.933594 2021.960938 1545.9375 2024.667969 C 1547.277344 2024.882812 1548.613281 2024.984375 1549.929688 2024.984375 C 1562.082031 2024.984375 1572.773438 2016.160156 1574.75 2003.773438 C 1576.941406 1990.054688 1567.59375 1977.144531 1553.867188 1974.949219 Z M 1553.867188 1974.949219 " fill-opacity="1" fill-rule="nonzero"/></svg>