<?xml version="1.0" encoding="UTF-8"?>
<svg id="Ebene_2" data-name="Ebene 2" xmlns="http://www.w3.org/2000/svg" xmlns:xlink="http://www.w3.org/1999/xlink" viewBox="0 0 446.82 302.2">
  <defs>
    <style>
      .cls-1 {
        fill: #fff;
      }

      .cls-2 {
        fill: url(#Neues_Verlaufsfeld_1);
      }

      .cls-3 {
        fill: url(#Neues_Verlaufsfeld_1-2);
      }
    </style>
    <linearGradient id="Neues_Verlaufsfeld_1" data-name="Neues Verlaufsfeld 1" x1="446.82" y1="135.01" x2="8.64" y2="135.01" gradientUnits="userSpaceOnUse">
      <stop offset="0" stop-color="#c19255"/>
      <stop offset="1" stop-color="#1d1d1b"/>
    </linearGradient>
    <linearGradient id="Neues_Verlaufsfeld_1-2" data-name="Neues Verlaufsfeld 1" x1="-196.12" y1="449.4" x2="-195.12" y2="449.4" gradientTransform="translate(71738.34 164632.45) scale(365.79 -365.79)" xlink:href="#Neues_Verlaufsfeld_1"/>
  </defs>
  <g id="Ebene_1-2" data-name="Ebene 1">
    <path class="cls-2" d="M152.21,0C100.07,0,51.13,8.36,8.64,22.98c41.92-9.28,88.59-12.53,137.14-8.23,161.81,14.33,282.93,106.6,270.52,206.1-1.55,12.46-5.24,24.4-10.64,35.79-3.46,8.4-6.42,13.39-6.42,13.39,0,0,13.25-7.4,26.65-24.47,5.6-7.13,10.05-15.69,13.56-24.16,4.79-12.95,7.37-26.42,7.37-40.26C446.82,81.1,314.92,0,152.21,0Z"/>
    <g>
      <path class="cls-1" d="M362.82,136.79h-30.87v-10.88h26.72v-4.62h-31.48v20.19h35.62v-4.69ZM358.67,190.77h-35.49v-73.63h35.49v-4.62h-40.25v83.01h40.25v-4.76ZM362.82,145.56h-35.62v41.2h31.48v-4.76h-26.72v-31.75h30.87v-4.69ZM305.16,145.83h-42.29v4.69h37.6c0,7.71-1.55,14.73-4.66,21.08-3.11,6.35-7.59,11.37-13.46,15.06-5.87,3.69-12.68,5.54-20.43,5.54-6.89,0-13.28-1.72-19.17-5.17-5.89-3.44-10.54-8.1-13.94-13.97-3.4-5.87-5.1-12.25-5.1-19.14s1.71-13.27,5.13-19.14c3.42-5.87,8.07-10.48,13.94-13.84,5.87-3.35,12.25-5.03,19.14-5.03,4.98,0,9.8.91,14.45,2.72,4.64,1.81,8.69,4.38,12.14,7.68l3.47-3.33c-4.04-3.81-8.67-6.75-13.9-8.84-5.24-2.08-10.62-3.13-16.15-3.13s-11.13,1.11-16.39,3.33c-5.26,2.22-9.86,5.3-13.8,9.25s-7.05,8.56-9.31,13.84c-2.27,5.28-3.4,10.78-3.4,16.49s1.13,11.25,3.4,16.49c2.27,5.24,5.39,9.8,9.38,13.7,3.99,3.9,8.59,6.96,13.8,9.18,5.21,2.22,10.65,3.33,16.32,3.33s11.23-1.1,16.55-3.3c5.33-2.2,9.97-5.26,13.94-9.18,3.97-3.92,7.08-8.49,9.35-13.7,2.27-5.21,3.4-10.72,3.4-16.52v-8.09ZM262.87,153.92v4.56h28.28c-.95,6.98-4.29,12.88-10.03,17.71-5.73,4.83-12.14,7.24-19.21,7.24-5.21,0-10.07-1.34-14.58-4.01-4.51-2.67-8.09-6.27-10.74-10.78-2.65-4.51-3.98-9.42-3.98-14.72,0-3.99.77-7.79,2.31-11.42,1.54-3.63,3.66-6.76,6.36-9.42,2.7-2.65,5.81-4.71,9.35-6.19,3.54-1.47,7.3-2.21,11.29-2.21s7.52.7,11.15,2.11c3.62,1.41,6.73,3.38,9.31,5.91l3.47-3.47c-3.36-3.08-7.07-5.43-11.15-7.04-4.08-1.61-8.34-2.41-12.78-2.41-6.12,0-11.8,1.52-17.03,4.55-5.24,3.04-9.37,7.2-12.41,12.48-3.04,5.28-4.56,10.98-4.56,17.1,0,4.58.89,8.95,2.68,13.12,1.79,4.17,4.25,7.82,7.38,10.95,3.13,3.13,6.75,5.58,10.88,7.34,4.12,1.77,8.48,2.65,13.05,2.65s9.12-.88,13.36-2.65c4.24-1.77,7.91-4.2,11.01-7.31,3.1-3.1,5.54-6.74,7.31-10.91,1.77-4.17,2.65-8.57,2.65-13.19h-33.38ZM202.36,179.58c-4.21-2.24-7.66-4.63-10.33-7.17l.14-.27c4.9-3.31,8.67-7.32,11.32-12.03,2.65-4.71,3.98-9.95,3.98-15.71,0-4.17-.77-8.19-2.31-12.07-1.54-3.88-3.68-7.29-6.43-10.23-2.74-2.95-5.99-5.28-9.76-7-3.76-1.72-7.73-2.58-11.9-2.58h-24.34v83.01h4.76v-78.39h19.58c4.76,0,9.12,1.26,13.09,3.77,3.96,2.51,7.05,5.85,9.25,9.99,2.2,4.15,3.3,8.65,3.3,13.49,0,6.07-1.53,11.41-4.59,16.01-3.06,4.6-7.33,8.33-12.82,11.18,2.86,3.76,6.86,7.17,12,10.23,5.14,3.06,10.16,5.27,15.06,6.63l1.36-4.62c-3.35-.59-7.14-2.01-11.35-4.25M199.2,187.03c-3.88-2.04-7.47-4.45-10.78-7.24-3.31-2.79-6.39-5.95-9.25-9.49l.27-.27c3.67-1,6.99-2.86,9.96-5.57,2.97-2.72,5.32-5.91,7.07-9.59,1.74-3.67,2.62-7.39,2.62-11.15s-1.02-7.33-3.06-10.84c-2.04-3.51-4.78-6.32-8.23-8.43-3.44-2.11-7.03-3.16-10.74-3.16h-15.57v74.24h4.76v-69.62h10.81c3.04,0,5.89.85,8.57,2.55s4.79,3.93,6.36,6.7c1.56,2.76,2.35,5.62,2.35,8.57,0,3.72-.96,7.33-2.89,10.84-1.93,3.51-4.53,6.36-7.82,8.53-3.29,2.18-6.81,3.29-10.57,3.33l-1.22,2.38c5.66,7.21,11.38,12.96,17.13,17.27,5.75,4.31,12.71,7.64,20.87,9.99l1.36-4.28c-4.12-1.13-8.12-2.72-12-4.76M135.8,137.33c-2.27-5.21-5.38-9.79-9.35-13.73-3.97-3.94-8.57-7.02-13.8-9.25-5.24-2.22-10.8-3.33-16.69-3.33s-11.13,1.11-16.39,3.33c-5.26,2.22-9.86,5.3-13.8,9.25-3.94,3.94-7.05,8.56-9.31,13.84-2.27,5.28-3.4,10.78-3.4,16.49s1.13,11.25,3.4,16.49c2.27,5.24,5.39,9.8,9.38,13.7,3.99,3.9,8.59,6.96,13.8,9.18,5.21,2.22,10.65,3.33,16.32,3.33s11.22-1.1,16.52-3.3c5.3-2.2,9.96-5.27,13.97-9.21,4.01-3.94,7.14-8.51,9.38-13.7,2.24-5.19,3.37-10.68,3.37-16.49s-1.13-11.38-3.4-16.59M131.48,168.74c-2.02,4.76-4.78,8.87-8.29,12.34-3.51,3.47-7.64,6.19-12.37,8.16-4.74,1.97-9.69,2.96-14.86,2.96-6.89,0-13.28-1.72-19.17-5.17-5.89-3.44-10.54-8.1-13.94-13.97-3.4-5.87-5.1-12.25-5.1-19.14s1.71-13.27,5.13-19.14c3.42-5.87,8.07-10.48,13.94-13.84,5.87-3.35,12.25-5.03,19.14-5.03,5.26,0,10.24.98,14.96,2.92,4.71,1.95,8.81,4.63,12.31,8.06,3.49,3.42,6.24,7.47,8.26,12.14,2.02,4.67,3.03,9.63,3.03,14.89s-1.01,10.06-3.03,14.82M125.67,136.75c-3.08-5.24-7.27-9.37-12.58-12.41-5.3-3.04-11.01-4.55-17.13-4.55s-11.8,1.52-17.03,4.55c-5.24,3.04-9.37,7.2-12.41,12.48-3.04,5.28-4.56,10.98-4.56,17.1,0,4.58.89,8.95,2.69,13.12,1.79,4.17,4.25,7.82,7.38,10.95,3.13,3.13,6.75,5.58,10.88,7.34,4.12,1.77,8.47,2.65,13.05,2.65,6.12,0,11.84-1.52,17.17-4.55,5.32-3.04,9.52-7.16,12.58-12.37,3.06-5.21,4.59-10.92,4.59-17.13s-1.54-11.93-4.62-17.17M123.19,165.24c-1.52,3.56-3.64,6.72-6.36,9.49-2.72,2.76-5.87,4.91-9.45,6.42-3.58,1.52-7.39,2.28-11.42,2.28-5.21,0-10.07-1.34-14.58-4.01-4.51-2.67-8.09-6.27-10.74-10.78-2.65-4.51-3.98-9.42-3.98-14.72,0-3.99.77-7.79,2.31-11.42,1.54-3.63,3.66-6.76,6.36-9.42,2.7-2.65,5.81-4.71,9.35-6.19,3.54-1.47,7.3-2.21,11.29-2.21s7.75.76,11.42,2.28c3.67,1.52,6.83,3.59,9.48,6.22,2.65,2.63,4.75,5.74,6.29,9.31,1.54,3.58,2.31,7.39,2.31,11.42s-.76,7.76-2.28,11.32M44.42,136.79H13.55v-10.88h26.72v-4.62H8.79v20.19h35.62v-4.69ZM40.27,112.51H.02v83.01h4.76v-78.39h35.49v-4.62ZM44.42,145.56H8.79v49.97h4.76v-45.28h30.87v-4.69Z"/>
      <path class="cls-1" d="M36.64,82.28c.41-2.78,3.03-5.04,5.86-5.04s5.2,2.25,5.65,5.04h-11.51ZM51.58,85.06c.33-5.73-2.95-10.85-9.13-10.85s-9.34,4.71-9.34,10.4,3.69,9.91,9.42,9.91c3.93,0,7.04-1.96,8.89-5.4l-2.78-1.6c-1.27,2.29-3.07,3.97-5.85,3.97-3.73,0-6.26-2.87-6.31-6.43h15.11ZM13.21,60.21v33.78h3.28v-9.13c0-3.44.29-7.62,4.79-7.62,3.81,0,4.05,2.78,4.05,5.9v10.85h3.28v-11.42c0-4.5-1.23-8.35-6.55-8.35-2.38,0-4.14,1.02-5.49,2.87l-.08-.08v-16.79h-3.28ZM6.83,77.77h3.44v-3.03h-3.44v-6.92h-3.28v6.92H1.55v3.03h2.01v16.21h3.28v-16.21Z"/>
      <path class="cls-1" d="M360.71,234.2c1.06-.9,1.58-2.09,1.58-3.57,0-1.12-.32-2.06-.97-2.81-.65-.75-1.7-1.41-3.15-1.98-1.19-.48-1.98-.91-2.38-1.31-.4-.39-.6-.87-.6-1.42,0-.6.26-1.09.79-1.47.52-.38,1.21-.57,2.06-.57,1,0,2.05.23,3.14.69l.28-2.31c-1.1-.4-2.31-.6-3.65-.6-1.65,0-2.98.42-3.98,1.25-1,.83-1.5,1.93-1.5,3.28,0,1.06.3,1.94.9,2.64.6.69,1.63,1.34,3.1,1.94,1.22.49,2.04.95,2.48,1.38.43.42.65.97.65,1.63,0,.71-.29,1.27-.86,1.68-.57.41-1.33.61-2.27.61-1.17,0-2.36-.3-3.56-.9l-.28,2.5c1.19.46,2.53.69,4.02.69,1.74,0,3.14-.45,4.2-1.35M345.1,233.72c1.09-1.22,1.63-2.95,1.63-5.2v-9.39h-2.73v9.16c0,1.67-.28,2.92-.84,3.76-.56.84-1.52,1.26-2.86,1.26s-2.22-.42-2.76-1.26c-.55-.84-.82-2.09-.82-3.76v-9.16h-2.82v9.39c0,2.27.49,4,1.47,5.21.98,1.21,2.6,1.82,4.87,1.82s3.78-.61,4.87-1.83M328.74,234.88l-.14-2.47c-1.08.43-2.24.65-3.49.65-1.71,0-3.12-.54-4.21-1.61-1.1-1.07-1.64-2.52-1.64-4.34s.53-3.19,1.59-4.24c1.06-1.06,2.44-1.58,4.15-1.58,1.25,0,2.39.26,3.42.79l.23-2.5c-1.06-.4-2.32-.6-3.77-.6-2.47,0-4.51.76-6.14,2.28-1.63,1.52-2.44,3.49-2.44,5.91,0,2.59.8,4.62,2.4,6.08,1.6,1.47,3.72,2.2,6.36,2.2,1.45,0,2.67-.19,3.68-.56M300.01,231.68c-.89-1.12-1.34-2.61-1.34-4.48s.45-3.32,1.34-4.45c.89-1.13,2.06-1.7,3.49-1.7s2.68.55,3.56,1.65,1.32,2.6,1.32,4.5-.45,3.32-1.34,4.45c-.89,1.13-2.06,1.7-3.49,1.7s-2.65-.56-3.54-1.68M309.24,233.28c1.42-1.51,2.13-3.56,2.13-6.15s-.7-4.52-2.09-6.03c-1.4-1.5-3.26-2.25-5.59-2.25-2.5,0-4.46.74-5.89,2.23s-2.14,3.54-2.14,6.14.71,4.57,2.14,6.07c1.43,1.5,3.33,2.25,5.7,2.25s4.32-.76,5.74-2.27M284.91,235.27v-6.92h5.71v-2.29h-5.71v-4.6h5.99v-2.34h-8.79v16.14h2.8ZM267.19,217.09h-2.2v23.13h2.2v-23.13ZM241.5,235.27v-7.91h.05c1.16,1.5,2,2.54,2.52,3.12l4.19,4.79h3.86l-7.91-8.58,7.26-7.56h-3.58l-3.4,3.77c-1.17,1.33-2.15,2.45-2.94,3.38h-.05v-7.15h-2.77v16.14h2.77ZM232.02,219.13h-2.8v16.14h2.8v-16.14ZM219.53,235.27v-13.81l4.7.07v-2.4h-12.24v2.4l4.72-.07v13.81h2.82ZM207.57,235.27v-2.34h-6.61v-4.83h5.99v-2.27h-5.99v-4.37h6.48v-2.34h-9.25v16.14h9.39ZM193.14,235.27v-2.38h-6.52v-13.76h-2.8v16.14h9.32ZM167.21,235.27v-7.17h7.1v7.17h2.8v-16.14h-2.8v6.61h-7.1v-6.61h-2.82v16.14h2.82ZM154.7,235.27v-13.81l4.7.07v-2.4h-12.24v2.4l4.72-.07v13.81h2.82ZM134.56,224.68c.35-.91.73-2,1.13-3.28h.05c.39,1.33.75,2.42,1.09,3.28l1.71,4.53h-5.67l1.69-4.53ZM130.56,235.27l1.55-3.89h7.26l1.55,3.89h3.08l-6.71-16.14h-3.05l-6.59,16.14h2.91ZM114.6,217.09h-2.2v23.13h2.2v-23.13ZM96.92,234.2c1.06-.9,1.58-2.09,1.58-3.57,0-1.12-.32-2.06-.97-2.81-.65-.75-1.7-1.41-3.15-1.98-1.19-.48-1.98-.91-2.38-1.31-.4-.39-.6-.87-.6-1.42,0-.6.26-1.09.79-1.47.52-.38,1.21-.57,2.06-.57,1,0,2.05.23,3.15.69l.28-2.31c-1.1-.4-2.31-.6-3.66-.6-1.65,0-2.98.42-3.98,1.25s-1.5,1.93-1.5,3.28c0,1.06.3,1.94.9,2.64s1.63,1.34,3.1,1.94c1.22.49,2.04.95,2.47,1.38.43.42.65.97.65,1.63,0,.71-.29,1.27-.86,1.68-.57.41-1.33.61-2.27.61-1.17,0-2.36-.3-3.56-.9l-.28,2.5c1.19.46,2.53.69,4.02.69,1.74,0,3.14-.45,4.2-1.35M82.21,234.2c1.06-.9,1.58-2.09,1.58-3.57,0-1.12-.32-2.06-.97-2.81-.65-.75-1.7-1.41-3.15-1.98-1.19-.48-1.98-.91-2.38-1.31-.4-.39-.6-.87-.6-1.42,0-.6.26-1.09.79-1.47.52-.38,1.21-.57,2.06-.57,1,0,2.05.23,3.15.69l.28-2.31c-1.1-.4-2.31-.6-3.66-.6-1.65,0-2.98.42-3.98,1.25s-1.5,1.93-1.5,3.28c0,1.06.3,1.94.9,2.64.6.69,1.63,1.34,3.1,1.94,1.22.49,2.04.95,2.47,1.38.43.42.65.97.65,1.63,0,.71-.29,1.27-.86,1.68-.57.41-1.33.61-2.27.61-1.17,0-2.36-.3-3.56-.9l-.28,2.5c1.19.46,2.53.69,4.02.69,1.74,0,3.14-.45,4.2-1.35M68.64,235.27v-2.34h-6.62v-4.83h5.99v-2.27h-5.99v-4.37h6.48v-2.34h-9.25v16.14h9.39ZM42.02,235.27v-8.63c0-2.17-.04-3.82-.11-4.93h.05c.62,1.47,1.32,2.92,2.1,4.37l4.9,9.18h3.59v-16.14h-2.57v7.65c0,2.19.05,4.06.14,5.6h-.05c-.56-1.28-1.22-2.67-1.99-4.16l-4.74-9.09h-3.91v16.14h2.59ZM29.74,235.27v-13.81l4.69.07v-2.4h-12.24v2.4l4.72-.07v13.81h2.82ZM17.21,219.13h-2.8v16.14h2.8v-16.14ZM2.8,235.27v-6.92h5.71v-2.29H2.8v-4.6h5.99v-2.34H0v16.14h2.8Z"/>
      <path class="cls-1" d="M362.67,273.65h-9.48v-5.61h8.16v-2.4h-10.85v25.38h10.85v-2.41h-8.16v-12.55h9.48v-2.41ZM341.4,276.39h-11.89v2.64h9.25c-.25,2.64-1.35,4.88-3.3,6.72-1.95,1.84-4.26,2.76-6.93,2.76-2.86,0-5.29-1-7.29-2.99-2-2-2.99-4.38-2.99-7.15s.99-5.3,2.97-7.31c1.98-2.01,4.42-3.02,7.31-3.02,2.58,0,4.9.93,6.98,2.78l1.74-1.89c-2.45-2.26-5.35-3.4-8.68-3.4-3.59-.03-6.64,1.2-9.18,3.68-2.53,2.49-3.8,5.52-3.8,9.1s1.26,6.56,3.77,9.01c2.51,2.45,5.58,3.68,9.2,3.68s6.5-1.23,9.03-3.7c2.53-2.47,3.8-5.39,3.8-8.75v-2.17ZM306.36,265.59h-2.69v19.29l-.09.05-15.8-19.72h-1.46v25.8h2.69v-19.86l.1-.05,15.8,19.91h1.46v-25.43ZM275.56,265.64h-2.69v16.04c0,1.89-.68,3.5-2.05,4.84-1.37,1.34-2.99,2.01-4.88,2.01s-3.37-.68-4.65-2.03c-1.27-1.35-1.91-2.97-1.91-4.86v-15.99h-2.69v15.99c0,2.64.92,4.9,2.76,6.77,1.84,1.87,4.06,2.81,6.67,2.81s4.84-.94,6.67-2.81c1.84-1.87,2.76-4.13,2.76-6.77v-15.99ZM242.54,285.52c-2.01,2-4.43,2.99-7.26,2.99s-5.24-1-7.24-2.99c-2-2-3-4.41-3-7.24s1-5.24,3-7.24c2-2,4.41-3,7.24-3s5.25,1,7.26,3c2.01,2,3.02,4.41,3.02,7.24s-1.01,5.24-3.02,7.24M244.43,269.24c-2.52-2.47-5.57-3.7-9.15-3.7s-6.63,1.24-9.13,3.7c-2.5,2.47-3.75,5.48-3.75,9.03s1.25,6.57,3.75,9.03c2.5,2.47,5.54,3.7,9.13,3.7s6.63-1.23,9.15-3.7c2.52-2.47,3.77-5.48,3.77-9.03s-1.26-6.56-3.77-9.03M217.64,288.61h-8.16v-22.97h-2.69v25.38h10.85v-2.41ZM188.92,291.34l-4.6,10.86h1.91l12.85-30.33h-1.91l-7.33,17.32-8.16-17.32h-1.95l9.2,19.47ZM172.42,273.61h3.36v-1.74h-3.36v-6.84h-1.87v6.84h-2.11v1.74h2.11v17.4h1.87v-17.4ZM158.13,263.79c-.95,0-1.7.79-1.7,1.7s.75,1.7,1.7,1.7,1.7-.75,1.7-1.7-.75-1.7-1.7-1.7M159.04,271.87h-1.87v19.14h1.87v-19.14ZM145.91,256.83h-1.87v34.18h1.87v-34.18ZM133.48,271.87h-1.86v3.31h-.08c-1.62-2.4-4.43-3.73-7.38-3.73-5.76,0-9.36,4.27-9.36,9.86s3.65,10.11,9.45,10.11c2.82,0,5.88-1.41,7.29-3.85h.08v3.44h1.86v-19.14ZM124.07,273.2c4.64,0,7.67,3.48,7.67,7.91s-2.65,8.58-7.54,8.58-7.54-3.98-7.54-8.37c0-4.14,3.02-8.12,7.42-8.12M105.88,273.61h3.36v-1.74h-3.36v-6.84h-1.86v6.84h-2.11v1.74h2.11v17.4h1.86v-17.4ZM91.59,263.79c-.95,0-1.7.79-1.7,1.7s.74,1.7,1.7,1.7,1.7-.75,1.7-1.7-.74-1.7-1.7-1.7M92.5,271.87h-1.86v19.14h1.86v-19.14ZM66.72,271.87h-1.91l8.79,20.18,8.74-20.18h-1.91l-6.79,15.79-6.92-15.79ZM33.24,291.34l-4.6,10.86h1.91l12.85-30.33h-1.91l-7.33,17.32-8.16-17.32h-1.95l9.2,19.47ZM.14,291.01h1.86v-3.44h.08c1.41,2.44,4.47,3.85,7.29,3.85,5.8,0,9.45-4.52,9.45-10.11s-3.65-9.86-9.36-9.86c-2.94,0-5.76,1.33-7.38,3.73h-.08v-18.36H.14v34.18ZM9.42,289.69c-4.72,0-7.54-3.85-7.54-8.33s2.78-8.16,7.62-8.16c4.43,0,7.46,3.94,7.46,8.12,0,4.39-2.86,8.37-7.54,8.37"/>
      <polyline class="cls-3" points=".03 247.05 365.81 247.05 365.81 248.05 .03 248.05"/>
    </g>
  </g>
</svg>